<svg id="visual" viewBox="0 0 900 600" width="900" height="600" xmlns="http://www.w3.org/2000/svg" xmlns:xlink="http://www.w3.org/1999/xlink" version="1.1"><rect x="0" y="0" width="900" height="600" fill="#060404"></rect><path d="M487 0L489 0L489 86L451 86L451 171L373 171L373 257L425 257L425 343L518 343L518 429L455 429L455 514L424 514L424 600L0 600L0 514L0 514L0 429L0 429L0 343L0 343L0 257L0 257L0 171L0 171L0 86L0 86L0 0L0 0Z" fill="#270e0e"></path><path d="M355 0L340 0L340 86L309 86L309 171L334 171L334 257L344 257L344 343L347 343L347 429L321 429L321 514L354 514L354 600L0 600L0 514L0 514L0 429L0 429L0 343L0 343L0 257L0 257L0 171L0 171L0 86L0 86L0 0L0 0Z" fill="#420e0f"></path><path d="M201 0L228 0L228 86L157 86L157 171L121 171L121 257L180 257L180 343L213 343L213 429L197 429L197 514L126 514L126 600L0 600L0 514L0 514L0 429L0 429L0 343L0 343L0 257L0 257L0 171L0 171L0 86L0 86L0 0L0 0Z" fill="#5c0a0a"></path></svg>