<svg id="visual" viewBox="0 0 900 600" width="900" height="600" xmlns="http://www.w3.org/2000/svg" xmlns:xlink="http://www.w3.org/1999/xlink" version="1.1"><rect x="0" y="0" width="900" height="600" fill="#070d12"></rect><path d="M339 0L479 0L479 86L385 86L385 171L445 171L445 257L430 257L430 343L494 343L494 429L389 429L389 514L479 514L479 600L0 600L0 514L0 514L0 429L0 429L0 343L0 343L0 257L0 257L0 171L0 171L0 86L0 86L0 0L0 0Z" fill="#041a2f"></path><path d="M246 0L319 0L319 86L271 86L271 171L220 171L220 257L299 257L299 343L332 343L332 429L253 429L253 514L302 514L302 600L0 600L0 514L0 514L0 429L0 429L0 343L0 343L0 257L0 257L0 171L0 171L0 86L0 86L0 0L0 0Z" fill="#00366f"></path><path d="M229 0L82 0L82 86L222 86L222 171L101 171L101 257L131 257L131 343L214 343L214 429L169 429L169 514L172 514L172 600L0 600L0 514L0 514L0 429L0 429L0 343L0 343L0 257L0 257L0 171L0 171L0 86L0 86L0 0L0 0Z" fill="#134fb2"></path></svg>